<svg xmlns="http://www.w3.org/2000/svg" viewBox="0 0 119.02 119.02"><defs><style>.cls-1{fill:#8f2708;}.cls-2{fill:#b82c01;}</style></defs><g id="Layer_2" data-name="Layer 2"><g id="Layer_1-2" data-name="Layer 1"><path class="cls-1" d="M59.47,0C93,0,119,26.28,119,60.1c0,33-26.56,58.94-60.23,58.92C25.9,119,0,92.41,0,58.67,0,26.24,26.62,0,59.47,0Zm0,114c30.63-.87,54.26-23.78,54.36-54.29C113.9,29,90.29,5.4,59.83,5.23,29,5.05,5.19,28.86,5.22,59.56S28.87,113.05,59.44,114Z"/><path class="cls-2" d="M59.44,114c-30.57-1-54.19-23.86-54.22-54.44S29,5.05,59.83,5.23c30.46.17,54.07,23.79,54,54.48C113.7,90.22,90.07,113.13,59.44,114ZM55.75,13.94c2,11.8.06,22-6.55,31.13-2.25,3.1-4.83,6-6.75,9.28-3.84,6.56-8.48,13-10.73,20.07-4.78,15.09,4.45,29.39,19,31.17C42.4,89.87,47.45,73,60.49,69.9c-.47,6-1.58,12.39-1.27,18.68.23,4.87,3.59,8.62,8.51,10.08a10.33,10.33,0,0,0,11-3c8.66-9.41,14-20.27,13.09-33.39A32.67,32.67,0,0,0,80.16,39c3,3.23,2.85,7.92.31,10.24a6.49,6.49,0,0,1-8.12.28c-2.21-2-.79-5-1.35-11.37C70.09,27.87,65.83,19.71,55.75,13.94Z"/></g></g></svg>